<?xml version="1.0" standalone="no"?>
<!DOCTYPE svg PUBLIC "-//W3C//DTD SVG 20010904//EN"
 "http://www.w3.org/TR/2001/REC-SVG-20010904/DTD/svg10.dtd">
<svg version="1.0" xmlns="http://www.w3.org/2000/svg"
 width="647.000000pt" height="647.000000pt" viewBox="0 0 647.000000 647.000000"
 preserveAspectRatio="xMidYMid meet">
<metadata>
Created by potrace 1.14, written by Peter Selinger 2001-2017
</metadata>
<g transform="translate(0.000000,647.000000) scale(0.100000,-0.100000)"
fill="#000000" stroke="none">
<path d="M3163 4845 l-63 -70 0 -146 0 -146 -95 -92 c-52 -50 -98 -91 -104
-91 -5 0 -85 79 -178 175 l-168 176 -224 -232 -224 -233 43 -38 44 -39 83 83
83 83 110 -110 110 -110 0 -335 0 -335 -90 -90 c-49 -49 -90 -94 -90 -100 0
-5 41 -51 91 -101 l91 -91 -47 -17 c-189 -64 -381 -253 -445 -439 -22 -65 -40
-230 -23 -212 5 6 18 33 28 60 41 112 199 220 385 265 47 11 88 20 92 20 5 0
9 -306 10 -680 l3 -680 193 186 192 186 0 500 0 501 31 -7 c17 -3 47 -6 65 -6
l34 0 0 -593 0 -593 -64 -63 -64 -64 91 -123 c50 -68 95 -124 99 -124 5 0 49
55 99 122 l90 122 -61 61 -60 61 0 582 c0 388 3 582 10 582 22 0 240 -75 327
-112 51 -22 97 -38 101 -36 5 1 109 105 231 231 l221 227 0 753 0 753 46 44
c25 25 66 72 91 105 50 66 102 162 81 149 -7 -4 -37 -23 -66 -42 -228 -145
-529 -129 -797 42 l-58 38 -93 -93 -93 -93 -3 149 -3 149 -62 -69z m257 -493
c36 -11 93 -26 127 -33 87 -16 262 -7 340 19 l63 20 -105 -110 -105 -111 0
-628 c0 -346 -2 -629 -5 -629 -3 0 -47 18 -98 39 -101 43 -259 93 -349 111
l-58 11 0 694 0 694 63 -28 c34 -15 91 -37 127 -49z m-320 -667 l0 -625 -65 0
-65 0 0 562 0 562 62 63 c34 35 64 63 65 63 2 0 3 -281 3 -625z"/>
</g>
</svg>
